<svg width="60" height="60" viewBox="0 0 60 60" fill="none" xmlns="http://www.w3.org/2000/svg">
<circle cx="30" cy="30" r="28.5" fill="#292929" stroke="#F6CF00" stroke-width="3"/>
<path d="M22.1613 19.634H22.1812C23.6059 19.634 24.9264 20.1116 26.0102 20.9255L25.9888 20.9103C27.0555 20.1119 28.38 19.6346 29.8086 19.6346C31.2373 19.6346 32.5618 20.1119 33.6502 20.9257L33.6285 20.9103C34.6963 20.1119 36.0218 19.6345 37.4515 19.6345C39.3053 19.6345 40.9838 20.4369 42.2 21.7347L42.6225 22.1866L40.5978 50.7255H19.035L17 22.1847L17.4157 21.7346C18.6248 20.4368 20.2973 19.6338 22.1453 19.6338H22.1621L22.1613 19.634ZM25.9889 24.68L25.071 23.702C24.3252 22.9068 23.2961 22.4152 22.1598 22.4152C21.2233 22.4152 20.3598 22.749 19.6675 23.3116L19.6777 23.3037L21.4409 47.9414H38.1888L39.9364 23.3037C39.2543 22.7491 38.3908 22.4152 37.4543 22.4152C36.3179 22.4152 35.2889 22.9068 34.543 23.702L33.6252 24.68L32.7072 23.7C31.9646 22.9065 30.9389 22.4158 29.8062 22.4158C28.6735 22.4158 27.6479 22.9065 26.9052 23.7L25.9889 24.68ZM39.7787 22.0959L37.7973 20.299C38.198 19.7953 38.4417 19.1374 38.4417 18.4185C38.4417 18.412 38.4417 18.4056 38.4416 18.3992V18.4002C38.4343 16.7456 37.1974 15.4025 35.6584 15.3623L35.6549 15.3622H35.6469C35.2271 15.3622 34.8295 15.464 34.4746 15.6458L34.491 15.6383L32.8145 16.483L32.6413 14.5083C32.5037 12.9752 31.3055 11.786 29.8477 11.786C28.3899 11.786 27.1918 12.9752 27.055 14.4961L27.0541 14.5083L26.8809 16.483L25.2044 15.6383C24.8658 15.464 24.4683 15.3622 24.0485 15.3622H24.0318C22.463 15.3622 21.1914 16.7224 21.1914 18.4003V18.4172C21.1914 19.1366 21.435 19.795 21.8389 20.3033L21.8357 20.2991L19.8543 22.0959C19.0703 21.111 18.5934 19.8238 18.5934 18.4176C18.5934 18.4082 18.5934 18.3989 18.5935 18.3896V18.391C18.5984 15.1838 21.0293 12.5857 24.0281 12.5835L24.0553 12.5834C24.3288 12.5834 24.5974 12.6057 24.8596 12.6486L24.8302 12.6446C25.6468 10.4911 27.587 9 29.8528 9C32.1187 9 34.0588 10.4911 34.8625 12.6059L34.8754 12.6446C35.1084 12.6057 35.377 12.5834 35.6505 12.5834C35.6617 12.5834 35.673 12.5834 35.6843 12.5835H35.6947C38.6577 12.6398 41.0395 15.2221 41.0395 18.3994V18.4189C41.0395 19.8247 40.5627 21.1113 39.7725 22.1039L39.7787 22.0959ZM25.2095 33.7942H34.4235V38.3326H25.2095L25.2095 33.7942Z" fill="#F6CF00"/>
</svg>
