<svg width="26" height="42" viewBox="0 0 26 42" fill="none" xmlns="http://www.w3.org/2000/svg">
<path d="M5.16126 10.634H5.18115C6.60588 10.634 7.92639 11.1116 9.01017 11.9255L8.98884 11.9103C10.0555 11.1119 11.38 10.6346 12.8086 10.6346C14.2373 10.6346 15.5618 11.1119 16.6502 11.9257L16.6285 11.9103C17.6963 11.1119 19.0218 10.6345 20.4515 10.6345C22.3053 10.6345 23.9838 11.4369 25.2 12.7347L25.6225 13.1866L23.5978 41.7255H2.03501L0 13.1847L0.415687 12.7346C1.6248 11.4368 3.29734 10.6338 5.1453 10.6338H5.16206L5.16126 10.634ZM8.98888 15.68L8.07096 14.702C7.32518 13.9068 6.29614 13.4152 5.15978 13.4152C4.22334 13.4152 3.35982 13.749 2.66749 14.3116L2.6777 14.3037L4.44086 38.9414H21.1888L22.9364 14.3037C22.2543 13.7491 21.3908 13.4152 20.4543 13.4152C19.3179 13.4152 18.2889 13.9068 17.543 14.702L16.6252 15.68L15.7072 14.7C14.9646 13.9065 13.9389 13.4158 12.8062 13.4158C11.6735 13.4158 10.6479 13.9065 9.90517 14.7L8.98888 15.68ZM22.7787 13.0959L20.7973 11.299C21.198 10.7953 21.4417 10.1374 21.4417 9.41846C21.4417 9.41202 21.4417 9.40563 21.4416 9.39923V9.40025C21.4343 7.74559 20.1974 6.40247 18.6584 6.3623L18.6549 6.36222H18.6469C18.2271 6.36222 17.8295 6.464 17.4746 6.6458L17.491 6.63826L15.8145 7.48299L15.6413 5.50828C15.5037 3.97517 14.3055 2.78598 12.8477 2.78598C11.3899 2.78598 10.1918 3.97521 10.055 5.4961L10.0541 5.50832L9.8809 7.48299L8.20436 6.63826C7.86582 6.46404 7.46826 6.36222 7.04846 6.36222H7.03178C5.46305 6.36222 4.19138 7.72245 4.19138 9.40029V9.4172C4.19138 10.1366 4.43503 10.795 4.83891 11.3033L4.83567 11.2991L2.8543 13.0959C2.07032 12.111 1.59338 10.8238 1.59338 9.41756C1.59338 9.40819 1.59338 9.3989 1.59345 9.38961V9.39104C1.5984 6.18379 4.02933 3.58569 7.02812 3.58353L7.05532 3.58345C7.32876 3.58345 7.5974 3.60569 7.85957 3.64864L7.83024 3.64464C8.64683 1.49111 10.587 0 12.8528 0C15.1187 0 17.0588 1.49111 17.8625 3.60594L17.8754 3.64464C18.1084 3.60569 18.377 3.5834 18.6505 3.5834C18.6617 3.5834 18.673 3.5834 18.6843 3.58353H18.6947C21.6577 3.63976 24.0395 6.22205 24.0395 9.39939V9.41887C24.0395 10.8247 23.5627 12.1113 22.7725 13.1039L22.7787 13.0959ZM8.20947 24.7942H17.4235V29.3326H8.20951L8.20947 24.7942Z" fill="#F6CF00"/>
</svg>
